{
  "asset": {
    "version": "2.0",
    "generator": "Sketchup glTF Exporter v1.2.6 by Centaur"
  },
  "scene": 0,
  "scenes": [
    {
      "nodes": [
        0
      ]
    }
  ],
  "samplers": [
    {
    }
  ],
  "nodes": [
    {
      "name": "root",
      "children": [
        1,
        2,
        3,
        4,
        5,
        6,
        7
      ],
      "mesh": 7
    },
    {
      "name": "Media",
      "mesh": 0
    },
    {
      "name": "About",
      "mesh": 1
    },
    {
      "name": "Interactive",
      "mesh": 2
    },
    {
      "name": "Photography",
      "mesh": 3
    },
    {
      "name": "Projections",
      "mesh": 4
    },
    {
      "name": "Video",
      "mesh": 5
    },
    {
      "name": "Music",
      "mesh": 6
    }
  ],
  "materials": [
    {
      "pbrMetallicRoughness": {
        "baseColorFactor": [
          0.2176,
          0.2176,
          0.2176,
          1.0
        ],
        "metallicFactor": 0.1,
        "roughnessFactor": 0.9
      },
      "name": "default material",
      "doubleSided": true
    }
  ],
  "meshes": [
    {
      "primitives": [
        {
          "attributes": {
            "POSITION": 0,
            "NORMAL": 1
          },
          "indices": 2,
          "mode": 4,
          "material": 0
        }
      ]
    },
    {
      "primitives": [
        {
          "attributes": {
            "POSITION": 0,
            "NORMAL": 1
          },
          "indices": 3,
          "mode": 4,
          "material": 0
        }
      ]
    },
    {
      "primitives": [
        {
          "attributes": {
            "POSITION": 0,
            "NORMAL": 1
          },
          "indices": 4,
          "mode": 4,
          "material": 0
        }
      ]
    },
    {
      "primitives": [
        {
          "attributes": {
            "POSITION": 0,
            "NORMAL": 1
          },
          "indices": 5,
          "mode": 4,
          "material": 0
        }
      ]
    },
    {
      "primitives": [
        {
          "attributes": {
            "POSITION": 0,
            "NORMAL": 1
          },
          "indices": 6,
          "mode": 4,
          "material": 0
        }
      ]
    },
    {
      "primitives": [
        {
          "attributes": {
            "POSITION": 0,
            "NORMAL": 1
          },
          "indices": 7,
          "mode": 4,
          "material": 0
        }
      ]
    },
    {
      "primitives": [
        {
          "attributes": {
            "POSITION": 0,
            "NORMAL": 1
          },
          "indices": 8,
          "mode": 4,
          "material": 0
        }
      ]
    },
    {
      "primitives": [
        {
          "attributes": {
            "POSITION": 0,
            "NORMAL": 1
          },
          "indices": 9,
          "mode": 4,
          "material": 0
        }
      ]
    }
  ],
  "accessors": [
    {
      "bufferView": 0,
      "componentType": 5126,
      "count": 8112,
      "type": "VEC3",
      "min": [
        0.0,
        -1.4930893775204529e-15,
        -24.384
      ],
      "max": [
        19.507200000000005,
        3.048,
        4.7778860080654495e-15
      ]
    },
    {
      "bufferView": 1,
      "componentType": 5126,
      "count": 8112,
      "type": "VEC3",
      "min": [
        -1.0,
        -1.0,
        -1.0
      ],
      "max": [
        1.0,
        1.0,
        1.0
      ]
    },
    {
      "bufferView": 2,
      "componentType": 5123,
      "count": 1944,
      "type": "SCALAR"
    },
    {
      "bufferView": 2,
      "componentType": 5123,
      "count": 1836,
      "type": "SCALAR",
      "byteOffset": 3888
    },
    {
      "bufferView": 2,
      "componentType": 5123,
      "count": 3672,
      "type": "SCALAR",
      "byteOffset": 7560
    },
    {
      "bufferView": 2,
      "componentType": 5123,
      "count": 4584,
      "type": "SCALAR",
      "byteOffset": 14904
    },
    {
      "bufferView": 2,
      "componentType": 5123,
      "count": 4536,
      "type": "SCALAR",
      "byteOffset": 24072
    },
    {
      "bufferView": 2,
      "componentType": 5123,
      "count": 1896,
      "type": "SCALAR",
      "byteOffset": 33144
    },
    {
      "bufferView": 2,
      "componentType": 5123,
      "count": 1644,
      "type": "SCALAR",
      "byteOffset": 36936
    },
    {
      "bufferView": 2,
      "componentType": 5123,
      "count": 912,
      "type": "SCALAR",
      "byteOffset": 40224
    }
  ],
  "bufferViews": [
    {
      "buffer": 0,
      "byteLength": 97344,
      "target": 34962,
      "byteStride": 12
    },
    {
      "buffer": 0,
      "byteOffset": 97344,
      "byteLength": 97344,
      "target": 34962,
      "byteStride": 12
    },
    {
      "buffer": 0,
      "byteOffset": 194688,
      "byteLength": 42048,
      "target": 34963
    }
  ],
  "buffers": [
    {
      "uri": "data:application/octet-stream;base64,",
      "byteLength": 236736
    }
  ]
}